<svg width="362" height="200" viewBox="0 0 362 200" fill="none" xmlns="http://www.w3.org/2000/svg">
<g id="Group 7">
<g id="Group 4">
<circle id="Oval" cx="104" cy="100" r="100" fill="#2C6269"/>
<path id="Combined Shape" fill-rule="evenodd" clip-rule="evenodd" d="M262 200C317.228 200 362 155.228 362 100C362 44.7715 317.228 0 262 0C206.772 0 162 44.7715 162 100C162 155.228 206.772 200 262 200ZM262 133C280.225 133 295 118.225 295 100C295 81.7746 280.225 67 262 67C243.775 67 229 81.7746 229 100C229 118.225 243.775 133 262 133Z" fill="#012F34"/>
<rect id="Rectangle" x="362" y="43" width="43" height="43" transform="rotate(180 362 43)" fill="#79C8C7"/>
<path id="Combined Shape Copy" fill-rule="evenodd" clip-rule="evenodd" d="M237.514 200C292.742 200 337.514 155.228 337.514 100C337.514 44.7715 292.742 0 237.514 0C182.285 0 137.514 44.7715 137.514 100C137.514 155.228 182.285 200 237.514 200ZM237.514 133C255.739 133 270.514 118.225 270.514 100C270.514 81.7746 255.739 67 237.514 67C219.288 67 204.514 81.7746 204.514 100C204.514 118.225 219.288 133 237.514 133Z" fill="#F67E7E"/>
</g>
<path id="Combined Shape_2" fill-rule="evenodd" clip-rule="evenodd" d="M100 0H0V4H100V0ZM100 8H0V12H100V8ZM0 16H100V20H0V16ZM100 24H0V28H100V24ZM0 32H100V36H0V32ZM100 40H0V44H100V40Z" fill="#79C8C7"/>
</g>
</svg>
